<svg width="128" height="127" viewBox="0 0 128 127" fill="none" xmlns="http://www.w3.org/2000/svg">
<path d="M57.9872 52.2648L59.3406 52.2063L58.9609 48.352L57.5374 47.8015L57.9872 52.2648Z" fill="#DADADA"/>
<path d="M58.7968 60.2799L60.1353 60.2241L59.9019 57.875L58.5593 57.9315L58.7968 60.2792V60.2799Z" fill="#DADADA"/>
<path d="M57.6177 37.837L57.9362 37.8949L56.8195 26.53C56.3364 26.6899 55.8784 26.839 55.4368 26.9812L56.3309 35.8384L57.6177 37.837Z" fill="#DADADA"/>
<path d="M59.377 66.017L60.6304 78.372C61.0625 78.5176 61.5185 78.6735 62.0057 78.8415L60.7087 65.9653L59.3776 66.0164L59.377 66.017Z" fill="#DADADA"/>
<path d="M62.342 82.1479C62.0623 82.0799 61.5921 81.9635 60.9803 81.807L61.9766 91.5904C62.3093 94.8547 62.9762 100.398 60.6877 102.74C57.8508 105.647 52.562 106.179 48.7553 107.167C44.9888 108.144 48.7887 107.296 22.9825 113.857C19.2038 114.818 17.3903 114.824 15.8537 109.996C15.2631 108.14 14.9888 105.994 14.7983 104.14C14.4336 100.61 14.1838 97.3174 13.9191 93.8319C13.7776 91.9694 5.31366 6.86342 5.31366 6.86342C5.11019 3.35482 8.47657 1.43244 12.0389 1.40794C13.6326 1.39569 15.3352 1.49504 16.9119 1.61276C18.9969 1.76792 37.8417 3.49976 38.5263 3.54671C40.6514 3.69234 43.0597 3.85838 45.2917 4.33064C50.1245 5.35341 52.3306 7.30437 53.6181 12.2767C54.0257 13.85 54.0945 13.8595 55.0982 23.6416C55.5861 23.5068 56.0543 23.3789 56.4905 23.2612C55.7902 16.4658 55.4309 13.8949 54.9172 11.9378C53.4534 6.37619 50.8091 4.16732 45.5611 3.04928C43.2488 2.5566 40.7814 2.37355 38.6031 2.21228C32.3808 1.75158 17.442 -0.0401426 12.0287 0.000686696C6.04722 0.041516 -0.322148 0.995561 0.0126524 6.96821C1.74994 36.5967 -0.566443 7.09751 9.40271 105.05C9.76337 108.508 10.3098 112.405 12.5139 115.063C14.5288 117.492 18.4205 116.473 21.5032 115.635C25.4963 115.182 47.0929 108.858 51.6631 107.865C65.9785 104.752 64.3031 101.368 62.3413 82.1493L62.342 82.1479Z" fill="#DADADA"/>
<path d="M43.7857 100.825C43.5258 100.81 38.2466 101.685 37.4415 101.93C33.9887 102.978 34.459 106.701 37.2626 106.701C38.8372 106.701 42.0954 105.738 42.6623 105.602C43.7156 105.35 44.6819 104.962 45.4162 104.158C46.5315 102.92 45.6394 100.601 43.7857 100.824V100.825ZM37.3014 105.316C36.0479 105.287 36.4249 104.071 36.7032 103.816C37.5525 103.05 38.5895 103.054 40.0703 102.862C41.4401 102.665 42.7997 102.335 43.9246 102.146C44.5009 102.046 44.9174 103.091 44.5846 103.456C43.5898 104.557 38.6732 105.346 37.3014 105.316V105.316Z" fill="#DADADA"/>
<path d="M31.4235 11.5188C32.728 11.7346 34.3775 10.4178 33.4513 7.79657C33.0968 6.79421 32.4422 6.18381 31.3942 6.00893C29.793 5.74217 28.7376 7.15079 28.875 8.81798C28.9819 10.1136 29.8243 11.4923 31.4235 11.5195V11.5188ZM30.9022 7.35493C31.5038 7.35493 32.0842 7.80269 32.2387 8.29537C32.483 9.02077 32.3911 10.1429 31.4936 10.1967C29.9332 10.1967 29.7794 7.35493 30.9022 7.35493Z" fill="#DADADA"/>
<path d="M59.0285 81.2956C58.5923 81.1785 58.1296 81.052 57.6471 80.9179L58.8945 93.0946L20.1604 102.385C18.7422 92.1174 14.5307 59.5274 14.0693 54.6994C13.2704 46.1388 10.9928 19.7692 10.6757 15.2609C20.896 15.7114 35.4795 15.9428 51.0314 16.3191L51.8759 24.5625C52.3148 24.4319 52.7551 24.3033 53.1913 24.1781L52.3135 15.5889C52.2946 15.4265 52.2178 15.2763 52.097 15.166C51.9762 15.0557 51.8196 14.9927 51.6561 14.9887C51.6561 14.9887 14.7328 14.0524 9.95101 13.821C9.85203 13.8166 9.75322 13.8331 9.66108 13.8695C9.56894 13.9059 9.48555 13.9615 9.41639 14.0324C9.34724 14.1034 9.29388 14.1882 9.25982 14.2812C9.22577 14.3743 9.21179 14.4735 9.2188 14.5723C9.58491 19.8155 12.7716 54.8225 12.7716 54.8225C13.1228 58.5366 18.9246 103.139 18.9505 103.303C18.9652 103.393 18.9983 103.479 19.0478 103.556C19.0972 103.633 19.162 103.699 19.238 103.749C19.314 103.8 19.3995 103.834 19.4894 103.85C19.5793 103.866 19.6715 103.863 19.7602 103.842L59.7743 94.2514C59.9315 94.2142 60.0696 94.1208 60.1628 93.9888C60.2559 93.8569 60.2976 93.6954 60.2799 93.5349L59.0292 81.2963L59.0285 81.2956Z" fill="#DADADA"/>
<path d="M55.5473 60.4158L56.8885 60.36L56.6483 58.011L55.3064 58.0668L55.5473 60.4158Z" fill="#DADADA"/>
<path d="M54.7281 52.4062L56.0714 52.3477L55.527 47.0243L55.1915 46.8943L54.2136 47.3802L54.7281 52.4062Z" fill="#DADADA"/>
<path d="M56.135 66.1418L57.2775 77.2984C57.726 77.4332 58.184 77.5747 58.6651 77.7278L57.4756 66.0901L56.135 66.1418Z" fill="#DADADA"/>
<path d="M54.175 33.7925L53.5394 27.5769C53.1019 27.711 52.6677 27.8416 52.2261 27.9716L53.0447 35.966L54.175 33.7925Z" fill="#DADADA"/>
<path d="M31.3675 40.5664C30.0398 40.3174 29.1144 40.1397 27.9181 39.9444L25.9651 37.0592C25.7044 36.6625 25.0913 36.6951 24.8647 37.1157C24.8647 37.1157 23.8596 39.0061 23.2138 40.2119L19.8284 41.1482C19.722 41.1773 19.6251 41.2336 19.547 41.3116C19.469 41.3895 19.4126 41.4864 19.3833 41.5927C19.3541 41.6991 19.353 41.8112 19.3802 41.9181C19.4074 42.0249 19.462 42.1229 19.5385 42.2023L21.993 44.7283L21.8304 48.2444C21.8255 48.3516 21.8484 48.4583 21.8971 48.5541C21.9457 48.6498 22.0184 48.7313 22.1079 48.7905C22.1975 48.8498 22.3009 48.8848 22.408 48.8921C22.5151 48.8994 22.6223 48.8788 22.7191 48.8323L25.8841 47.3523L29.1593 48.5948C29.2712 48.637 29.3921 48.6492 29.5102 48.6304C29.6282 48.6115 29.7393 48.5622 29.8326 48.4874C29.9258 48.4125 29.9979 48.3146 30.0417 48.2034C30.0856 48.0922 30.0997 47.9714 30.0827 47.8531L29.5356 44.3785L31.7778 41.6661C32.1044 41.2592 31.8676 40.6596 31.3668 40.5657L31.3675 40.5664ZM28.5822 46.9093L26.0964 45.977C26.0092 45.9449 25.9164 45.9307 25.8235 45.9352C25.7307 45.9398 25.6397 45.963 25.5561 46.0035L23.1193 47.2393L23.2465 44.5173C23.2505 44.4328 23.2372 44.3484 23.2075 44.2692C23.1778 44.19 23.1323 44.1177 23.0737 44.0566L21.1928 42.0928L23.8188 41.3769C23.903 41.3538 23.9817 41.3138 24.0499 41.2593C24.1181 41.2048 24.1745 41.1369 24.2155 41.0598L25.4771 38.6774L26.9348 40.9584C27.0382 41.1162 27.2049 41.2238 27.3886 41.2592C28.3454 41.4374 29.1947 41.598 29.9976 41.7314L28.3903 43.8089C28.3376 43.8747 28.2989 43.9505 28.2763 44.0316C28.2537 44.1128 28.2478 44.1977 28.259 44.2812L28.5809 46.9086L28.5822 46.9093Z" fill="#619B7D"/>
<path d="M45.9739 39.8893C44.6456 39.641 43.6895 39.4572 42.5245 39.2667L40.5715 36.3814C40.2884 35.9697 39.6896 36.033 39.4711 36.4379L37.8196 39.5348L34.4342 40.4705C34.3277 40.4995 34.2305 40.5558 34.1524 40.6338C34.0743 40.7118 34.0178 40.8088 33.9885 40.9152C33.9593 41.0217 33.9583 41.1339 33.9856 41.2409C34.0129 41.3478 34.0676 41.4458 34.1443 41.5252L36.5988 44.0505L36.4362 47.5666C36.4312 47.6739 36.4542 47.7806 36.5028 47.8763C36.5515 47.9721 36.6241 48.0535 36.7137 48.1128C36.8032 48.172 36.9066 48.207 37.0138 48.2143C37.1209 48.2217 37.2281 48.2011 37.3249 48.1546L40.4898 46.6745L43.765 47.9171C43.8769 47.9594 43.9979 47.9718 44.1161 47.9531C44.2342 47.9343 44.3454 47.885 44.4387 47.8101C44.532 47.7352 44.6041 47.6372 44.6479 47.5259C44.6917 47.4146 44.7057 47.2937 44.6884 47.1753L44.1406 43.7008L46.3829 40.989C46.7095 40.5834 46.474 39.9826 45.9718 39.8887L45.9739 39.8893ZM43.1886 46.2315L40.7028 45.2992C40.6155 45.2676 40.5227 45.2537 40.4299 45.2583C40.3371 45.263 40.2462 45.2862 40.1625 45.3265L37.7257 46.5615L37.8529 43.8403C37.8568 43.7558 37.8435 43.6714 37.8138 43.5922C37.7841 43.513 37.7386 43.4407 37.6801 43.3796L35.7992 41.4164L38.4259 40.7019C38.5102 40.6787 38.5889 40.6386 38.6571 40.584C38.7253 40.5293 38.7817 40.4613 38.8226 40.3841L40.0842 38.001L41.5425 40.282C41.646 40.4405 41.8127 40.5487 41.9964 40.5828C42.9437 40.7597 43.7827 40.9182 44.6061 41.055L42.9981 43.1326C42.9456 43.1984 42.9069 43.2741 42.8843 43.3553C42.8617 43.4364 42.8558 43.5213 42.8668 43.6048L43.1886 46.2322V46.2315Z" fill="#619B7D"/>
<path d="M60.5823 39.2126C59.2465 38.9622 58.3319 38.786 57.1329 38.5907L55.1799 35.7054C54.9199 35.3093 54.3068 35.3406 54.0795 35.7619C54.0795 35.7619 53.0751 37.6509 52.428 38.8588L49.0426 39.7944C48.9361 39.8235 48.839 39.8798 48.7608 39.9578C48.6827 40.0358 48.6262 40.1327 48.5969 40.2392C48.5677 40.3456 48.5667 40.4579 48.594 40.5648C48.6213 40.6718 48.676 40.7698 48.7527 40.8492L51.2072 43.3752L51.0446 46.8913C51.0398 46.9985 51.0629 47.1051 51.1116 47.2007C51.1603 47.2963 51.2329 47.3777 51.3224 47.4369C51.4119 47.4961 51.5152 47.5311 51.6223 47.5385C51.7293 47.5459 51.8365 47.5255 51.9333 47.4792L55.0982 45.9991L58.3734 47.2417C58.4853 47.2836 58.6062 47.2957 58.7241 47.2768C58.8421 47.2579 58.9531 47.2086 59.0463 47.1337C59.1394 47.0589 59.2115 46.9611 59.2554 46.85C59.2994 46.7389 59.3136 46.6183 59.2968 46.5L58.749 43.0254L60.9912 40.3137C61.3186 39.9054 61.0804 39.3072 60.5802 39.2133H60.5823V39.2126ZM57.797 45.5555L55.3112 44.6232C55.2239 44.5912 55.1311 44.5771 55.0383 44.5818C54.9455 44.5864 54.8545 44.6098 54.7709 44.6504L52.3341 45.8855L52.4613 43.1635C52.4652 43.0791 52.4519 42.9947 52.4222 42.9155C52.3925 42.8363 52.347 42.7639 52.2885 42.7029L50.4076 40.739L53.0343 40.0231C53.1185 40 53.1972 39.96 53.2654 39.9055C53.3336 39.851 53.39 39.7831 53.431 39.706L54.6927 37.3243L56.1509 39.6053C56.2544 39.7631 56.4211 39.8713 56.6048 39.9054C57.5636 40.0843 58.4061 40.2429 59.2145 40.3776L57.6065 42.4552C57.554 42.521 57.5153 42.5968 57.4927 42.6779C57.4701 42.759 57.4642 42.8439 57.4752 42.9274L57.797 45.5555Z" fill="#619B7D"/>
<path d="M75.7422 38.5026C74.4479 38.2597 73.438 38.0664 72.2928 37.8806L70.3398 34.9947C70.0676 34.5993 69.466 34.632 69.2401 35.0512L67.5885 38.1487L64.2024 39.0844C64.0961 39.1135 63.9991 39.1698 63.9211 39.2478C63.843 39.3257 63.7866 39.4226 63.7574 39.5289C63.7281 39.6353 63.7271 39.7474 63.7543 39.8542C63.7815 39.9611 63.836 40.0591 63.9125 40.1385L66.3671 42.6645L66.2038 46.1806C66.1991 46.2878 66.2223 46.3944 66.271 46.49C66.3198 46.5856 66.3925 46.667 66.4821 46.7261C66.5717 46.7852 66.675 46.8202 66.7821 46.8275C66.8892 46.8348 66.9964 46.8142 67.0932 46.7678L70.2581 45.2878L73.5333 46.5303C73.6452 46.5727 73.7662 46.5851 73.8843 46.5663C74.0025 46.5476 74.1137 46.4983 74.207 46.4234C74.3003 46.3485 74.3724 46.2505 74.4162 46.1392C74.46 46.0278 74.4739 45.907 74.4567 45.7886L73.9096 42.314L76.1518 39.6016C76.4791 39.1933 76.2403 38.5958 75.7408 38.5019H75.7422V38.5026ZM72.9569 44.8448L70.4718 43.9125C70.3845 43.8803 70.2917 43.8661 70.1988 43.8708C70.106 43.8755 70.015 43.8989 69.9315 43.9397L67.4946 45.1755L67.6219 42.4535C67.6257 42.3691 67.6123 42.2849 67.5826 42.2058C67.5529 42.1267 67.5075 42.0545 67.449 41.9935L65.5682 40.0296L68.1942 39.3144C68.2785 39.2916 68.3573 39.2517 68.4256 39.1972C68.4938 39.1426 68.5501 39.0746 68.5909 38.9973L69.8525 36.6142L71.3108 38.8959C71.4143 39.0538 71.581 39.1613 71.7647 39.1953C72.7215 39.375 73.5707 39.5349 74.3744 39.6683L72.7671 41.7458C72.7143 41.8115 72.6754 41.8872 72.6528 41.9684C72.6302 42.0496 72.6244 42.1346 72.6357 42.2181L72.9569 44.8448Z" fill="#619B7D"/>
<path fill-rule="evenodd" clip-rule="evenodd" d="M86.6334 39.7926C87.8944 37.9002 90.6143 38.5153 92.2828 39.9416C93.7003 41.1543 94.8054 42.8936 95.7492 44.7922L95.8432 41.7313L101.618 36.7005C101.685 36.6416 101.735 36.5666 101.764 36.4826C101.793 36.3987 101.799 36.3087 101.783 36.2215C101.766 36.1342 101.728 36.0527 101.671 35.9848C101.614 35.917 101.54 35.8651 101.457 35.8342C101.457 35.8342 94.8748 33.3838 94.3434 33.1925L91.3234 26.1774C91.2901 26.103 91.2382 26.0385 91.1728 25.99C91.1074 25.9415 91.0305 25.9106 90.9497 25.9005C90.8689 25.8903 90.7868 25.9011 90.7114 25.9318C90.6359 25.9626 90.5697 26.0122 90.519 26.076L85.8107 32.1181L78.2403 32.8298C78.1601 32.8374 78.0833 32.8656 78.0172 32.9117C77.9512 32.9578 77.8982 33.0202 77.8635 33.0928C77.8288 33.1654 77.8134 33.2458 77.819 33.3262C77.8246 33.4065 77.8508 33.484 77.8953 33.5512L82.1361 39.9287L80.4396 47.4359C80.4227 47.5121 80.4258 47.5915 80.4488 47.6661C80.4718 47.7408 80.5138 47.8082 80.5707 47.8618C80.6276 47.9153 80.6974 47.9531 80.7733 47.9715C80.8493 47.9899 80.9287 47.9882 81.0037 47.9666L87.2921 46.2096C86.3966 44.1328 85.4317 41.5959 86.6334 39.7926Z" fill="#619B7D"/>
<path d="M80.0094 63.3243L79.8584 60.6187C79.8552 60.5368 79.8357 60.4564 79.8013 60.3821C79.7668 60.3078 79.7179 60.2411 79.6575 60.1858C79.597 60.1305 79.5263 60.0877 79.4492 60.0599C79.3721 60.0322 79.2903 60.0199 79.2085 60.0239C76.2518 60.1764 70.418 60.4683 65.758 60.5677C65.5922 60.5763 65.4364 60.6498 65.3242 60.7722C65.2121 60.8947 65.1525 61.0563 65.1585 61.2223C65.1455 61.4264 65.1653 62.0171 65.2061 63.8884C65.2086 63.9754 65.2284 64.0609 65.2643 64.1401C65.3002 64.2193 65.3515 64.2906 65.4152 64.3498C65.4789 64.409 65.5538 64.455 65.6354 64.485C65.717 64.515 65.8038 64.5285 65.8907 64.5247C65.9159 64.5233 78.6716 64.0783 79.3473 64.0157C79.4368 64.0156 79.5253 63.9974 79.6075 63.9622C79.6897 63.927 79.764 63.8755 79.8258 63.8108C79.8876 63.7462 79.9356 63.6697 79.9671 63.5859C79.9985 63.5022 80.0127 63.413 80.0088 63.3236H80.0094V63.3243ZM66.495 63.2018L66.4432 61.785C68.4371 61.6272 71.3251 61.4087 78.6349 61.272L78.6689 62.7057C77.6978 62.75 75.1086 63.0365 66.495 63.2025V63.2018Z" fill="#DADADA"/>
<path d="M44.1075 57.0965C43.985 54.1935 44.0347 54.1813 43.7782 53.9452C43.7162 53.8883 43.6436 53.8442 43.5645 53.8155C43.4855 53.7867 43.4015 53.7739 43.3175 53.7778C26.6013 54.7611 23.0947 54.6726 22.1386 54.6951C21.9738 54.7037 21.819 54.7764 21.7071 54.8977C21.5952 55.019 21.5352 55.1793 21.5398 55.3442C21.5248 55.5477 21.5391 56.1377 21.563 58.0104C21.5648 58.0974 21.5838 58.1833 21.619 58.2629C21.6541 58.3426 21.7047 58.4145 21.7678 58.4745C22.1713 58.8569 43.4726 57.7858 43.4726 57.7858C43.6481 57.7782 43.8134 57.7014 43.9324 57.5722C44.0514 57.4431 44.1144 57.272 44.1075 57.0965ZM22.8538 57.3231L22.8185 55.9179C24.9783 55.7641 39.1019 55.1598 42.7295 55.0632L42.7649 56.4786C42.6438 56.4834 24.2951 57.2782 22.8538 57.3224V57.3231Z" fill="#DADADA"/>
<path d="M86.3645 55.2147L86.2727 52.5036C86.2702 52.4177 86.2507 52.3332 86.2152 52.2549C86.1797 52.1766 86.1289 52.1062 86.0658 52.0478C86.0028 51.9893 85.9287 51.9441 85.848 51.9146C85.7672 51.8852 85.6814 51.8721 85.5956 51.8762L48.3314 53.5516C48.1678 53.5586 48.0134 53.6289 47.9007 53.7476C47.7879 53.8663 47.7257 54.0242 47.7271 54.1878C47.6876 54.4464 47.7155 55.116 47.7019 56.8554C47.7019 57.2364 48.0347 57.5331 48.3851 57.508C48.4783 57.5032 85.7303 55.8966 85.7303 55.8966C85.9041 55.8884 86.0678 55.8125 86.1863 55.685C86.3047 55.5575 86.3685 55.3887 86.3638 55.2147H86.3645ZM49.0037 56.1796L48.9982 54.7806C50.6573 54.6778 83.3452 53.2481 84.9933 53.1909L85.0246 54.5927C84.7164 54.605 51.4807 56.0871 49.0037 56.1796Z" fill="#DADADA"/>
<path d="M37.1505 65.2768C37.0763 63.6184 37.0532 62.9046 37.0035 62.5575C36.947 62.1574 36.6585 61.9642 36.3496 61.975C34.0488 62.054 27.3576 62.4405 22.4615 62.5399C22.2954 62.5481 22.1393 62.6216 22.027 62.7443C21.9148 62.867 21.8555 63.029 21.862 63.1952C21.8483 63.3993 21.8681 63.99 21.9075 65.8606C21.91 65.9477 21.9297 66.0334 21.9656 66.1128C22.0015 66.1922 22.0529 66.2636 22.1166 66.323C22.1804 66.3823 22.2554 66.4284 22.3371 66.4585C22.4189 66.4886 22.5058 66.5021 22.5928 66.4983C22.6187 66.4969 35.8072 66.0294 36.4877 65.9688C36.8572 65.9688 37.1668 65.6626 37.1498 65.2768H37.1505ZM23.1978 65.174L23.1474 63.7586C25.6223 63.5633 28.6662 63.3626 35.7752 63.2265L35.8092 64.6589C35.6133 64.6664 30.7988 65.0223 23.1978 65.1733V65.174Z" fill="#DADADA"/>
<path d="M63.7419 64.2877C63.6344 61.3977 63.6759 61.3738 63.4173 61.1323C62.8055 60.5715 61.923 61.4888 39.1776 62.0047C39.0123 62.0117 38.8564 62.0833 38.7433 62.2041C38.6302 62.3248 38.569 62.4851 38.5727 62.6504C38.538 62.9111 38.5774 63.58 38.5945 65.3173C38.5955 65.4048 38.6142 65.4912 38.6494 65.5713C38.6846 65.6514 38.7356 65.7236 38.7993 65.7836C38.863 65.8436 38.9381 65.8902 39.0202 65.9206C39.1022 65.9509 39.1896 65.9645 39.277 65.9603L63.1063 64.9743C63.2812 64.9664 63.446 64.8898 63.5649 64.7614C63.6839 64.6329 63.7474 64.4627 63.7419 64.2877ZM39.8867 64.6334L39.8561 63.2302C40.9265 63.1554 61.2744 62.2884 62.3625 62.2571L62.3986 63.6691C62.2428 63.6746 41.2068 64.5905 39.8867 64.6334Z" fill="#DADADA"/>
<path d="M82.7661 19.6306C82.7409 19.5512 82.7003 19.4775 82.6465 19.4139C82.5928 19.3502 82.5271 19.2978 82.453 19.2596C82.379 19.2214 82.2981 19.1982 82.2151 19.1914C82.1321 19.1845 82.0486 19.1941 81.9692 19.2196C80.9873 19.5469 62.1827 26.5076 62.1827 26.5076L60.4495 23.5332C60.3821 23.4194 60.2786 23.3314 60.1553 23.2833C60.0321 23.2352 59.8964 23.2297 59.7697 23.2678C51.9699 25.4433 43.5339 28.2095 40.6936 29.0547L38.4343 26.1456C38.3578 26.0466 38.2513 25.975 38.1308 25.9415C38.0102 25.908 37.882 25.9144 37.7654 25.9598C34.282 27.2772 24.8225 31.0723 21.4922 33.028C20.7668 33.4534 21.4099 34.5523 22.136 34.1277C24.8552 32.5415 34.8774 28.3926 37.7852 27.201L39.9988 30.1074C40.0733 30.2033 40.1752 30.2744 40.291 30.3114C40.4067 30.3483 40.5309 30.3493 40.6473 30.3143C40.6677 30.3075 58.6108 24.8874 59.6751 24.5458L61.458 27.4773C61.5252 27.5907 61.6305 27.6765 61.7552 27.7195C61.8798 27.7625 62.0156 27.7599 62.1385 27.7121C62.2004 27.6876 80.1462 21.0936 82.3551 20.4247C82.4343 20.3997 82.5079 20.3593 82.5714 20.3058C82.635 20.2524 82.6874 20.1868 82.7256 20.1131C82.7638 20.0393 82.787 19.9587 82.794 19.8759C82.8009 19.7931 82.7915 19.7097 82.7661 19.6306Z" fill="#619B7D"/>
<path d="M85.8432 84.5165C85.8051 84.4422 85.7526 84.3763 85.6887 84.3227C85.6247 84.2691 85.5507 84.2287 85.471 84.2041C83.2601 83.5338 65.3177 76.9413 65.2544 76.9161C65.1321 76.8689 64.997 76.8665 64.873 76.9093C64.7491 76.9522 64.6444 77.0375 64.5773 77.1502L62.7931 80.0831C61.1987 79.5727 43.7857 74.3214 43.7639 74.3146C43.6476 74.2799 43.5235 74.2812 43.408 74.3184C43.2925 74.3555 43.191 74.4268 43.1167 74.5228L40.9038 77.4285C37.9865 76.2329 27.9732 72.0873 25.2546 70.5018C25.1092 70.4243 24.9395 70.406 24.781 70.4508C24.6225 70.4956 24.4875 70.6001 24.4042 70.7423C24.321 70.8844 24.2961 71.0533 24.3346 71.2135C24.3731 71.3736 24.4721 71.5127 24.6109 71.6015C27.9167 73.5436 37.5476 77.4183 40.882 78.669C40.9985 78.7149 41.1268 78.7218 41.2476 78.6885C41.3683 78.6552 41.475 78.5837 41.5516 78.4846L43.8115 75.5748C44.4226 75.7565 62.8387 81.3481 62.8849 81.361C63.0121 81.3999 63.1487 81.3948 63.2727 81.3465C63.3966 81.2982 63.5007 81.2096 63.5681 81.095L65.3 78.1226C66.7399 78.6554 84.1053 85.0833 85.0893 85.4113C85.6207 85.5821 86.1032 85.018 85.8426 84.5171L85.8432 84.5165Z" fill="#619B7D"/>
<path d="M109.636 21.0878C109.572 21.0238 109.496 20.9732 109.412 20.9391C109.329 20.9049 109.239 20.8879 109.148 20.889C109.058 20.89 108.968 20.9092 108.885 20.9453C108.802 20.9815 108.728 21.0338 108.665 21.0993C106.671 23.185 102.818 26.7141 101.374 28.4316C101.256 28.5693 101.197 28.7478 101.21 28.9288C101.222 29.1097 101.305 29.2784 101.441 29.3986C101.578 29.5156 101.754 29.5748 101.934 29.5636C102.113 29.5525 102.281 29.4718 102.402 29.3387C104.588 26.972 107.339 24.2425 109.637 22.0479C109.908 21.7894 109.902 21.3525 109.637 21.0878H109.636Z" fill="#619B7D"/>
<path d="M115.455 27.709C115.427 27.6228 115.383 27.543 115.324 27.4742C115.265 27.4055 115.193 27.3492 115.113 27.3087C115.032 27.2681 114.944 27.2442 114.853 27.2383C114.763 27.2323 114.673 27.2445 114.587 27.2741C110.81 28.5827 107.418 29.5824 105.009 31.4496C104.937 31.5029 104.876 31.5699 104.829 31.6468C104.782 31.7238 104.751 31.8091 104.738 31.898C104.724 31.9869 104.728 32.0777 104.75 32.165C104.771 32.2523 104.81 32.3346 104.863 32.4071C104.916 32.4795 104.983 32.5408 105.06 32.5874C105.137 32.634 105.223 32.6649 105.311 32.6785C105.4 32.6921 105.491 32.688 105.578 32.6666C105.666 32.6451 105.748 32.6066 105.82 32.5534C108.263 30.8562 111.576 29.5687 115.014 28.5623C115.373 28.4575 115.568 28.0662 115.454 27.7083L115.455 27.709Z" fill="#619B7D"/>
<path d="M114.657 35.3871C112.558 35.1435 108.421 35.0013 106.595 35.0945C105.714 35.1394 105.702 36.4364 106.62 36.465C108.85 36.5589 114.592 36.7426 114.602 36.7426C114.963 36.7426 115.264 36.4575 115.281 36.0935C115.297 35.7199 115.006 35.4021 114.657 35.3871Z" fill="#619B7D"/>
<path d="M127.951 112.626C127.271 110.952 118.096 90.597 118.064 90.5262C118.022 90.4386 117.962 90.3611 117.888 90.2995C117.813 90.2378 117.726 90.1935 117.632 90.1696C117.027 90.0199 117.109 90.497 112.354 93.6068C109.812 95.2713 108.662 95.9803 102.714 98.0722C102.701 95.9763 99.7579 93.2448 97.2442 90.5208C93.247 86.1922 92.4835 84.6046 90.1923 78.7259C88.917 75.45 88.1413 73.0036 86.7163 67.9442C85.9038 65.0548 86.3332 66.5131 85.8657 63.8259C85.6282 62.4622 85.3595 60.9168 85.618 59.9199C85.7814 59.2925 86.1835 59.0278 86.9062 59.0659C88.355 59.1387 89.1845 60.9086 89.6043 62.29C90.5244 65.2978 90.6992 71.118 94.7958 72.4749C94.8785 72.5035 94.9661 72.5153 95.0535 72.5098C95.1409 72.5043 95.2263 72.4815 95.3047 72.4427C95.3832 72.4039 95.4532 72.3499 95.5107 72.2839C95.5682 72.2178 95.6119 72.141 95.6395 72.0579C95.6671 71.9749 95.6779 71.8871 95.6713 71.7998C95.6647 71.7125 95.6408 71.6274 95.6011 71.5494C95.5613 71.4714 95.5065 71.4021 95.4397 71.3454C95.373 71.2888 95.2957 71.2459 95.2123 71.2194C91.9895 70.1469 91.8153 64.9711 90.8748 61.9001C90.2603 59.8995 89.0674 57.8532 86.9695 57.7546C85.5711 57.6865 84.6871 58.3071 84.3557 59.5939C84.0488 60.7814 84.3312 62.4785 84.581 63.9756C85.0015 66.5104 84.6436 65.4305 85.6385 69.0704C86.7211 73.0227 87.4193 75.5194 88.8939 79.2355C91.4117 85.5804 92.7271 87.7253 96.1894 91.4932C97.4504 92.8651 98.944 94.3526 99.928 95.5265C100.597 96.3226 101.365 97.7156 101.467 98.505C100.751 98.7506 100.285 98.9044 100.275 98.9085C100.123 98.9571 99.9928 99.0562 99.9052 99.1893C99.8176 99.3224 99.7781 99.4814 99.7933 99.64C100.355 105.8 101.633 120.711 103.62 126.487C103.648 126.57 103.692 126.647 103.75 126.713C103.807 126.779 103.878 126.833 103.957 126.871C104.485 127.132 105.073 126.625 104.885 126.061C103.345 121.442 101.638 105.66 101.234 100.072C103.435 99.3311 107.663 97.8469 109.715 96.7704C111.847 95.6408 115.278 93.2182 117.215 91.7994C118.058 93.6469 126.217 111.875 126.726 113.124C126.792 113.286 126.92 113.416 127.082 113.484C127.244 113.552 127.426 113.553 127.589 113.487C127.751 113.421 127.881 113.293 127.949 113.131C128.017 112.97 128.018 112.788 127.952 112.625L127.951 112.626Z" fill="#DADADA"/>
<path d="M111.893 65.3249C111.18 63.2304 110.057 59.6837 109.087 58.4071C108.675 57.8668 107.816 57.1087 107.077 56.8556C106.387 56.6195 105.325 56.4473 104.577 56.6446C103.762 55.1285 102.435 53.5096 100.778 53.0394C99.9427 52.8005 98.9505 52.8108 98.2047 52.955C97.1336 50.1303 96.3722 48.5176 95.5903 46.7993C94.5512 44.5163 93.5345 42.2945 91.5836 40.6872C89.9511 39.3296 88.0273 38.8206 87.2482 40.7573C86.7909 41.8984 87.0236 43.697 87.5034 44.7123C88.7106 47.226 89.7034 49.492 90.537 51.6396C91.9088 55.1734 94.641 63.2182 93.7795 67.0459C93.5801 67.9285 94.8894 68.249 95.1105 67.2977C95.4794 65.7053 95.395 63.5672 94.8594 60.9433C93.8374 55.9342 90.7234 48.308 88.7732 44.1107C88.3138 43.1376 88.2077 41.1948 88.8432 40.924C89.1978 40.7736 89.832 41.1125 90.1559 41.3153C90.9371 41.7984 91.8639 42.6674 92.6887 43.9624C94.0088 46.031 96.4579 51.8894 97.6508 55.2993C98.9362 58.9644 100.351 62.4002 102.115 65.9837C102.153 66.0616 102.206 66.1313 102.271 66.1887C102.336 66.2462 102.412 66.2902 102.494 66.3184C102.576 66.3465 102.663 66.3582 102.75 66.3528C102.836 66.3474 102.921 66.325 102.999 66.2868C103.077 66.2487 103.147 66.1955 103.204 66.1304C103.262 66.0653 103.306 65.9896 103.334 65.9075C103.362 65.8253 103.374 65.7385 103.368 65.6518C103.363 65.5652 103.34 65.4805 103.302 65.4025C101.313 61.3393 100.073 58.107 98.6804 54.2527C99.9856 54.169 101.01 54.5365 101.716 55.0986C102.276 55.5422 102.435 55.792 102.846 56.4663C103.749 57.9428 104.508 59.5031 105.112 61.1257C106.64 65.1909 106.287 65.8115 106.821 66.1347C107.323 66.4382 107.946 65.9803 107.805 65.41C107.036 62.3083 106.346 60.5969 105.212 57.945C105.703 57.9742 106.189 58.0582 106.661 58.1955C107.372 58.4085 107.569 58.6847 107.97 59.2652C109.186 61.0195 109.729 63.0535 110.641 65.7537C110.698 65.9193 110.818 66.0557 110.975 66.1331C111.132 66.2105 111.314 66.2226 111.48 66.1667C111.646 66.1102 111.783 65.99 111.86 65.8325C111.938 65.675 111.95 65.4932 111.893 65.327L111.893 65.3249Z" fill="#DADADA"/>
<path d="M116.024 89.3612C114.542 84.5848 114.787 78.9572 115.107 73.9665C115.279 69.6644 116.315 66.4028 113.548 63.1671C113.168 62.7153 112.427 62.948 112.372 63.5366C112.364 63.6236 112.373 63.7112 112.399 63.7946C112.425 63.878 112.467 63.9554 112.523 64.0225C113.321 65.001 113.777 66.1347 113.958 67.5903C114.279 70.1891 113.787 72.3489 113.686 74.1679C113.42 78.9592 113.35 85.1877 114.76 89.7524C115.021 90.5894 116.283 90.1982 116.023 89.3605L116.024 89.3612Z" fill="#DADADA"/>
</svg>
